<svg xmlns="http://www.w3.org/2000/svg" viewBox="0 0 1440 900"><path fill="#006fba" d="m592.05 544.67 520.59-435.59a.33.33 0 0 1 .21-.08h127.79a.33.33 0 0 1 .31.44l-149.32 434.87a.33.33 0 0 0 .31.44h267.73a.33.33 0 0 1 .33.33v3.08a.33.33 0 0 1-.12.25l-98.09 81.46a.33.33 0 0 1-.21.08l-200.22.07a.33.33 0 0 0-.32.22l-54.15 159.54a.33.33 0 0 1-.32.22H874.48a.33.33 0 0 1-.31-.44l55.48-159.22a.33.33 0 0 0-.31-.44l-284.04.14a.33.33 0 0 0-.21.08l-184.15 159.8a.33.33 0 0 1-.21.08H297.26a.33.33 0 0 1-.21-.58l190.24-158.94a.33.33 0 0 0-.21-.58l-405.31.11a.33.33 0 0 1-.19-.6l365.05-254.33a.33.33 0 0 1 .49.41L367 544.28a.33.33 0 0 0 .3.47h224.54a.33.33 0 0 0 .21-.08Zm458.67-264.46a.3.3 0 0 0-.48-.32L745.59 544.22a.3.3 0 0 0 .19.53h212.68a.3.3 0 0 0 .28-.2l91.98-264.34Z"/></svg>