<?xml version="1.0" encoding="UTF-8"?>
<svg version="1.1" xmlns="http://www.w3.org/2000/svg" width="1024" height="1024">
<path d="M0 0 C337.92 0 675.84 0 1024 0 C1024 337.92 1024 675.84 1024 1024 C686.08 1024 348.16 1024 0 1024 C0 686.08 0 348.16 0 0 Z " fill="none" transform="translate(0,0)"/>
<path d="M0 0 C81.18 0 162.36 0 246 0 C242.55689673 17.21551634 242.55689673 17.21551634 240.94921875 23.86328125 C240.76978729 24.61577652 240.59035583 25.36827179 240.40548706 26.14356995 C240.02792841 27.72593545 239.6492012 29.30802258 239.26931763 30.88983154 C238.27047952 35.04895882 237.28028698 39.21014665 236.2890625 43.37109375 C236.09270706 44.19434143 235.89635162 45.01758911 235.69404602 45.86578369 C233.70203525 54.22751097 231.76790578 62.60212667 229.85229492 70.98168945 C229.52515503 72.41001099 229.52515503 72.41001099 229.19140625 73.8671875 C229.00779541 74.67269043 228.82418457 75.47819336 228.63500977 76.30810547 C227.79225688 79.88065192 226.8902518 83.4389928 226 87 C177.16 87 128.32 87 78 87 C77.01 91.95 76.02 96.9 75 102 C74.42321773 104.58387395 73.83205042 107.16470376 73.2109375 109.73828125 C72.75847656 111.61483398 72.75847656 111.61483398 72.296875 113.52929688 C71.99265625 114.77775391 71.6884375 116.02621094 71.375 117.3125 C71.05968719 118.62429882 70.74458243 119.93614767 70.4296875 121.24804688 C68.12963051 130.74073898 68.12963051 130.74073898 67 133 C114.19 133 161.38 133 210 133 C205.40483571 155.97582145 205.40483571 155.97582145 203.59765625 163.40234375 C203.39321396 164.25647354 203.18877167 165.11060333 202.97813416 165.99061584 C202.34308568 168.64043236 201.70299448 171.28899529 201.0625 173.9375 C200.64092533 175.69197306 200.21970112 177.44653036 199.79882812 179.20117188 C199.17044021 181.82026843 198.54134822 184.43918208 197.90957642 187.0574646 C196.79521806 191.67615038 195.69213884 196.29719267 194.60498047 200.92236328 C194.37741562 201.88791641 194.14985077 202.85346954 193.91539001 203.84828186 C193.47759193 205.70801793 193.04177071 207.56822075 192.60816956 209.42893982 C192.41190475 210.26135696 192.21563995 211.09377411 192.01342773 211.95141602 C191.84141342 212.68667007 191.66939911 213.42192413 191.49217224 214.17945862 C191 216 191 216 190 218 C142.81 218 95.62 218 47 218 C45.68 224.27 44.36 230.54 43 237 C40.6585909 247.12401302 40.6585909 247.12401302 39.82951355 250.58039856 C39.55369981 251.73235686 39.55369981 251.73235686 39.27231407 252.90758705 C39.08319262 253.69734114 38.89407116 254.48709522 38.69921875 255.30078125 C38.29548414 256.99532031 37.89199195 258.68991714 37.48872375 260.38456726 C36.43650985 264.80386566 35.38148962 269.22248877 34.32568359 273.64093018 C32.64748006 280.66624068 30.97382744 287.69263692 29.29984474 294.71895409 C28.72982666 297.10989631 28.15870229 299.50057161 27.58732605 301.89118958 C24.00289534 316.91510649 20.50987251 331.95768923 17 347 C-15.67 347 -48.34 347 -82 347 C-80.833201 339.999206 -79.69430826 333.17983338 -78.05151367 326.30883789 C-77.86697254 325.52290504 -77.68243141 324.7369722 -77.49229813 323.92722321 C-76.88799626 321.35811919 -76.27809126 318.7903836 -75.66796875 316.22265625 C-75.23579807 314.39158375 -74.80392522 312.56044094 -74.37232971 310.72923279 C-73.22133692 305.85096413 -72.06507777 300.97395869 -70.90745544 296.09725952 C-70.18186625 293.03875259 -69.45781039 289.97988662 -68.73425293 286.92089844 C-63.26638072 263.80600361 -57.75775577 240.7033241 -52.04309082 217.64804077 C-45.95995929 193.08349612 -40.12056184 168.46053838 -34.2624054 143.84158325 C-33.45676138 140.45594405 -32.65082821 137.07037379 -31.84484863 133.68481445 C-30.2898825 127.15214401 -28.73630524 120.61914418 -27.18359375 114.0859375 C-26.92957417 113.01727699 -26.67555458 111.94861649 -26.41383743 110.84757233 C-23.49948183 98.58276185 -20.60087542 86.31441296 -17.72705078 74.04003906 C-17.45797063 72.89189287 -17.18889048 71.74374668 -16.91165638 70.56080818 C-15.62897762 65.08754247 -14.34861889 59.6137602 -13.073349 54.13876343 C-10.8052659 44.43482613 -8.49896249 34.75246936 -5.84746647 25.14484596 C-3.5860028 16.81598236 -1.88006335 8.46028507 0 0 Z " fill="#000000" stroke="red" stroke-width="8" transform="translate(300,323)"/>
<path d="M0 0 C1.98252101 0.01307131 3.96506478 0.02302823 5.94761658 0.03001404 C11.14150473 0.05661899 16.33400167 0.12527566 21.52734375 0.20294189 C26.83639714 0.27481499 32.14567746 0.30657682 37.45507812 0.34179688 C47.85477471 0.41665435 58.25344311 0.53597597 68.65234375 0.68359375 C65.99858711 12.77887442 63.22490071 24.83981612 60.34375 36.8828125 C59.93669516 38.5890032 59.52977747 40.29522663 59.12298584 42.0014801 C58.26523414 45.59829069 57.40670335 49.19491395 56.54751587 52.79138184 C54.50890379 61.32526832 52.47485962 69.86024418 50.44040489 78.39512253 C49.76333351 81.23541364 49.0861167 84.07567005 48.40888977 86.91592407 C44.91172293 101.58475167 41.42978372 116.25711631 37.96484375 130.93359375 C37.7207074 131.96754272 37.47657104 133.0014917 37.22503662 134.06677246 C35.95316044 139.45404738 34.68196791 144.84148331 33.41113281 150.22900391 C31.12191879 159.93312157 28.83014077 169.63663379 26.53860855 179.34020424 C22.57573688 196.1211492 18.61412479 212.90239115 14.65234375 229.68359375 C-17.02765625 229.68359375 -48.70765625 229.68359375 -81.34765625 229.68359375 C-77.34084912 212.32076287 -73.32054988 194.96243155 -69.22265625 177.62109375 C-68.94818665 176.45945709 -68.67371704 175.29782043 -68.39093018 174.10098267 C-64.23078053 156.50905289 -60.01099073 138.93221396 -55.72265625 121.37109375 C-55.47094666 120.33693329 -55.21923706 119.30277283 -54.9598999 118.23727417 C-54.24573707 115.30589172 -53.52782943 112.3754539 -52.80859375 109.4453125 C-52.60286743 108.59974792 -52.39714111 107.75418335 -52.18518066 106.88299561 C-50.75160753 101.07206553 -49.07277025 95.43397377 -47.34765625 89.68359375 C-63.51765625 89.68359375 -79.68765625 89.68359375 -96.34765625 89.68359375 C-94.52234375 81.42328125 -94.52234375 81.42328125 -92.66015625 72.99609375 C-92.1019519 70.40181519 -92.1019519 70.40181519 -91.5324707 67.75512695 C-91.21841313 66.37287859 -90.90299165 64.9909391 -90.5859375 63.609375 C-90.43878296 62.90083374 -90.29162842 62.19229248 -90.14001465 61.46228027 C-88.97816408 56.51031524 -87.19439539 53.95743011 -83.34765625 50.68359375 C-82.47109375 49.91660156 -81.59453125 49.14960938 -80.69140625 48.359375 C-75.0175496 43.64415072 -69.2834045 39.04547617 -63.41381836 34.57324219 C-59.19793702 31.3560394 -55.04448971 28.06730788 -50.91015625 24.74609375 C-45.95033021 20.76274746 -40.97632904 16.7992684 -35.97265625 12.87109375 C-35.43842041 12.45158447 -34.90418457 12.0320752 -34.35375977 11.59985352 C-33.30260923 10.7756651 -32.24148316 9.9640245 -31.17028809 9.1660614 C-29.30207578 7.72516458 -29.30207578 7.72516458 -27.760849 5.91583252 C-20.07618127 -1.77471445 -10.09189287 -0.19575454 0 0 Z " fill="#EA1519" transform="translate(662.34765625,311.31640625)"/>
<path d="M0 0 C3.51310437 0.04350284 7.02604488 0.02854889 10.53934312 0.02097726 C16.61446782 0.01575337 22.68851209 0.04691727 28.76336503 0.10335565 C37.54620211 0.18489907 46.32852093 0.21069744 55.1116955 0.22323556 C69.36418485 0.24507963 83.61609932 0.31151285 97.86827683 0.40626168 C111.70646388 0.49816219 125.54449435 0.56889196 139.38292527 0.61133981 C140.66409785 0.61528066 140.66409785 0.61528066 141.97115269 0.61930113 C146.25633255 0.63235224 150.54151351 0.64498914 154.8266952 0.65742016 C190.33268137 0.76095572 225.83793616 0.93973785 261.34337449 1.16065621 C257.71337449 16.34065621 254.08337449 31.52065621 250.34337449 47.16065621 C141.77337449 47.16065621 33.20337449 47.16065621 -78.65662551 47.16065621 C-75.64041252 43.39038997 -73.50049403 41.03632547 -69.84412551 38.16065621 C-65.18584134 34.42905341 -60.65110335 30.58777593 -56.15662551 26.66065621 C-51.00087962 22.16605282 -45.83709752 17.69853404 -40.4312036 13.50387788 C-37.61904771 11.2614737 -37.61904771 11.2614737 -35.48693633 8.59192491 C-25.81520847 -1.87267167 -13.35442059 -0.2076388 0 0 Z " fill="#EA1418" transform="translate(486.6566255092621,638.8393437862396)"/>
<path d="M0 0 C2.23789873 0.00254091 4.47580496 0.00110927 6.71369934 -0.00398254 C12.7693616 -0.0065587 18.82341062 0.04625265 24.87869883 0.10918307 C31.21404182 0.16554847 37.5494242 0.1707398 43.88497925 0.18141174 C54.51234024 0.20618232 65.13906607 0.26234872 75.76611328 0.34277344 C86.70781525 0.4254929 97.64935672 0.48914511 108.59130859 0.52734375 C109.26672936 0.52970826 109.94215012 0.53207277 110.63803817 0.53450894 C114.026715 0.546255 117.41539295 0.5576282 120.80407166 0.56881607 C148.87874285 0.66198747 176.95276239 0.82106454 205.02685547 1.02172852 C204.71428797 2.76678788 204.40039531 4.51160992 204.08595276 6.2563324 C203.82397016 7.71384242 203.82397016 7.71384242 203.55669498 9.20079708 C202.85943747 12.91308275 202.01598987 16.57671761 201.11669922 20.24438477 C200.85814903 21.31262733 200.85814903 21.31262733 200.59437561 22.40245056 C200.23542204 23.88227793 199.87494177 25.36173579 199.51293945 26.84082031 C198.95795787 29.11039118 198.40909511 31.38138381 197.86083984 33.65258789 C197.50898318 35.09994032 197.15678261 36.5472092 196.80419922 37.99438477 C196.55886696 39.00989159 196.55886696 39.00989159 196.30857849 40.0459137 C195.14220841 44.79102262 195.14220841 44.79102262 194.02685547 47.02172852 C105.58685547 47.02172852 17.14685547 47.02172852 -73.97314453 47.02172852 C-67.26079718 39.1906566 -67.26079718 39.1906566 -62.97314453 35.83422852 C-58.56019479 32.31466126 -54.243977 28.7123988 -49.97314453 25.02172852 C-45.00764261 20.73861225 -39.98591536 16.54353036 -34.86376953 12.44750977 C-32.00896486 10.22196538 -32.00896486 10.22196538 -30.2758503 7.85200596 C-21.94204493 -1.69820084 -11.79456847 -0.18743283 0 0 Z " fill="#EA161A" transform="translate(557.97314453125,572.978271484375)"/>
<path d="M0 0 C79.86 0 159.72 0 242 0 C241.67 1.65 241.34 3.3 241 5 C240.67 4.01 240.34 3.02 240 2 C160.47 2 80.94 2 -1 2 C-0.67 1.34 -0.34 0.68 0 0 Z " fill="#EC2025" transform="translate(304,323)"/>
<path d="M0 0 C0.66 0 1.32 0 2 0 C2 0.66 2 1.32 2 2 C160.895 2.495 160.895 2.495 323 3 C323 3.33 323 3.66 323 4 C216.08 4 109.16 4 -1 4 C-0.67 2.68 -0.34 1.36 0 0 Z " fill="#EC2025" transform="translate(412,681)"/>
<path d="M0 0 C0.66 0 1.32 0 2 0 C2 1.32 2 2.64 2 4 C71.3 4.495 71.3 4.495 142 5 C142 5.33 142 5.66 142 6 C94.81 6 47.62 6 -1 6 C-0.67 4.02 -0.34 2.04 0 0 Z " fill="none" transform="translate(368,450)"/>
<path d="M0 0 C2 3 2 3 1.75 6.375 C1.10626078 9.48640622 0.30944157 12.11922854 -1 15 C-1.66 15 -2.32 15 -3 15 C-2.68917128 13.24970238 -2.37626821 11.49977306 -2.0625 9.75 C-1.88847656 8.77546875 -1.71445313 7.8009375 -1.53515625 6.796875 C-1.09620271 4.50278205 -0.59651408 2.25708029 0 0 Z " fill="#EC2025" transform="translate(240,574)"/>
<path d="M0 0 C2.78637633 4.1795645 1.79562512 6.14668677 1 11 C0.01 10.67 -0.98 10.34 -2 10 C-1.34 6.7 -0.68 3.4 0 0 Z " fill="#EC2025" transform="translate(264,474)"/>
<path d="M0 0 C0.66 0 1.32 0 2 0 C2 1.32 2 2.64 2 4 C3.65 4.33 5.3 4.66 7 5 C7 5.33 7 5.66 7 6 C4.36 6 1.72 6 -1 6 C-0.67 4.02 -0.34 2.04 0 0 Z " fill="none" transform="translate(368,450)"/>
<path d="M0 0 C2 4 2 4 1.25 6.6875 C0 9 0 9 -2 10 C-1.34 6.7 -0.68 3.4 0 0 Z " fill="#EC2025" transform="translate(277,419)"/>
</svg>
