<svg xmlns="http://www.w3.org/2000/svg" viewBox="0 0 1663 1260"><path fill="#1b315d" d="M835.06 0h1.01q1.9 6.14 4.88 11.8 4.24 8.03 4.27 8.08 292.64 602.38 461.81 951.82c3.64 7.52-.72 14.23-3.98 21.86q-56.38 132.07-112.47 263.88a.55.55 0 0 1-1 .02L832.5 504.8a.22.21 44.7 0 0-.39 0l-344.29 752.78a.49.49 0 0 1-.89 0q-31.55-66.81-63.13-133.56c-25.64-54.2-47.89-102.72-64.25-136.26-4.54-9.31-3.09-14.28 1.62-23.8Q511.2 660.94 659.89 357.28C709.27 256.42 766.73 140.5 833.25 4.75q1.42-2.91 1.81-4.75ZM1660.95 17.23 1342 886.98a.45.45 0 0 1-.83.05c-53.92-105.72-106.92-212.08-161.88-317.33-1.8-3.46-1.68-7.45-.27-11.38q13.33-37.36 26.5-74.77 81.34-231.19 163.19-462.21c1.42-4.02 3.56-5.05 7.6-5.06q44.72-.06 89.44-.06c3.82 0 7.92.52 11.43.52q91.67.02 183.41.01a.38.36 9.3 0 1 .36.48ZM0 37.19v-3.75q80.28-.3 204.25-.13c1.07 0 1.9.4 2.76.41q15.94.11 31.87-.02c5.58-.05 11.42-.9 17.13-1.36 15.67-1.25 19.39 6.59 22.99 19.81 1.93 7.09 3.73 12.07 6.01 18.1q77.35 205.07 154.49 410.21 14.44 38.4 29.06 76.73c2.28 5.97 1.23 11.21-1.78 17.25-59.98 120.63-102.93 208.2-153.8 312.57a.49.49 0 0 1-.9-.05C208.38 604.58 105.77 322.02 2.6 39.55c-.54-1.48-1.3-1.71-2.6-2.36Z"/></svg>